<svg width="64" height="65" viewBox="0 0 64 65" fill="none" xmlns="http://www.w3.org/2000/svg">
<path d="M20.4391 8.44064C17.1266 9.02814 13.5016 11.1031 9.20156 14.8906C7.43906 16.4406 4.78906 19.1281 4.01406 20.1531C3.12656 21.3406 2.71406 22.8281 2.97656 23.9531C3.07656 24.4156 3.03906 24.5906 2.60156 25.6406C1.46406 28.3531 0.851562 31.4406 0.851562 34.4406C0.864062 39.6906 2.80156 44.4906 6.50156 48.4281C7.10156 49.0531 7.80156 49.9281 8.06406 50.3781C8.66406 51.3656 10.0766 52.8781 11.0016 53.5031C12.5641 54.5656 14.4641 55.3281 16.6266 55.7656C18.0391 56.0531 21.6141 56.2031 22.9891 56.0406C23.7391 55.9406 24.0141 55.9531 24.4266 56.1156C25.2641 56.4406 29.4266 56.3781 31.1016 56.0281C35.8766 55.0031 37.7641 52.9031 36.4141 50.1406C36.0141 49.3031 34.5641 47.7906 33.3891 46.9406L32.5141 46.3156L32.5016 45.6281C32.4891 44.3281 31.9766 42.8031 31.1391 41.5781L30.9016 41.2156L31.2766 40.9031C31.4766 40.7281 31.8141 40.3031 32.0141 39.9406C32.3141 39.4031 32.4641 39.2656 32.9141 39.1281C34.1641 38.7531 35.0516 38.1281 35.7266 37.1281C35.9766 36.7531 36.1891 36.4281 36.1891 36.4156C36.1891 36.4031 36.5516 36.4781 37.0016 36.5656C38.1141 36.8156 39.8266 36.8031 40.6016 36.5531C41.4641 36.2656 42.3266 35.5781 42.9266 34.6906L43.4391 33.9281L44.0016 34.1156C44.4016 34.2406 45.1641 34.3031 46.6266 34.3031C48.8266 34.3156 49.9766 34.1156 51.6391 33.4406L52.3516 33.1531L53.0766 33.5031C55.4516 34.6281 58.2766 34.9156 60.7016 34.2781C63.9516 33.4156 64.8141 31.2156 63.2016 27.8156C62.3016 25.9156 61.0266 24.2906 59.0641 22.5281L58.3891 21.9281L58.5141 21.4281C58.6891 20.7531 58.4891 20.0156 57.9766 19.4406C57.2891 18.6531 53.9641 17.1656 51.8516 16.7031C51.6391 16.6531 51.4141 16.4406 51.2141 16.0906C49.9391 13.9281 46.1266 11.8531 41.7141 10.9281C40.4891 10.6781 39.6891 10.6031 37.6891 10.5406C35.0391 10.4656 33.2516 10.6156 30.7641 11.1281L29.5766 11.3656L28.9516 10.8281C27.5641 9.66564 26.2641 8.96564 24.7516 8.57814C23.6141 8.29064 21.6516 8.22814 20.4391 8.44064ZM24.8766 10.7906C27.2891 11.6406 29.1641 13.6531 31.2016 17.5531C35.7266 26.2281 36.3766 36.0906 32.4891 37.0656C32.1766 37.1406 32.1266 37.0656 31.3891 35.7281C29.5641 32.4281 27.6766 29.9156 25.2266 27.5656C22.2516 24.6906 19.1891 22.9281 15.8141 22.1281C12.8016 21.4031 9.25156 21.6406 6.11406 22.7406C5.53906 22.9406 5.03906 23.0906 5.01406 23.0531C4.87656 22.9156 5.31406 21.9531 5.80156 21.2906C6.58906 20.2531 10.5641 16.3906 12.1891 15.0906C15.3141 12.5906 18.0141 11.1156 20.5016 10.5656C21.7641 10.2781 23.7141 10.3781 24.8766 10.7906ZM38.6891 12.6406C41.4266 12.8656 43.5641 13.4281 45.7266 14.4406C47.2141 15.1531 48.5141 16.0031 48.9891 16.6156L49.3641 17.0906L48.5266 17.6406C47.3391 18.4156 45.6891 20.1281 44.8891 21.4281C43.7641 23.2406 43.3391 24.5906 42.8141 28.0031C42.5516 29.7031 41.9641 31.9531 41.5516 32.8906C40.8766 34.3781 39.7516 34.9406 37.9766 34.6406C37.4766 34.5531 37.0266 34.4531 36.9641 34.3906C36.9141 34.3406 36.9266 34.0031 37.0016 33.6406C37.1891 32.6406 37.1516 29.6531 36.9391 28.1406C36.2641 23.5656 34.2516 18.1781 31.7141 14.2156C31.3766 13.6781 31.1141 13.2281 31.1391 13.2031C31.2516 13.1031 33.7766 12.7281 35.0016 12.6406C36.9141 12.4906 37.0391 12.4906 38.6891 12.6406ZM52.9641 19.2031C54.3016 19.6406 55.7266 20.3031 56.2516 20.7281L56.5641 20.9906L55.4766 22.0031C54.8766 22.5531 54.1141 23.4156 53.7891 23.9156C52.6641 25.5906 51.7641 28.0031 51.1641 30.9406C51.0766 31.3906 51.0141 31.4531 50.4391 31.6656C48.9516 32.2156 46.6141 32.4156 44.9141 32.1156C44.2641 32.0031 44.1266 31.9406 44.1766 31.7656C44.3516 31.1906 44.7641 29.1156 45.0016 27.5656C45.1516 26.6031 45.3891 25.4531 45.5266 25.0031C46.2516 22.6281 48.0266 20.3781 50.1766 19.0781C51.0141 18.5656 51.0516 18.5781 52.9641 19.2031ZM57.8391 24.2281C59.3266 25.5031 60.5891 27.1281 61.3391 28.7031C61.7516 29.5531 61.8141 29.8156 61.8141 30.5406C61.8141 31.3281 61.7891 31.4281 61.4641 31.7031C60.9266 32.1531 59.9516 32.4031 58.4391 32.4656C57.4516 32.5156 56.8266 32.4656 56.2266 32.3281C55.2891 32.1156 53.4141 31.4156 53.3141 31.2531C53.1516 30.9906 53.8391 28.5781 54.5766 26.8781C55.1266 25.5781 56.5516 23.5031 56.8891 23.5031C56.9516 23.5031 57.3766 23.8281 57.8391 24.2281ZM13.3891 23.8781C17.3641 24.2781 20.5641 25.9281 23.9516 29.3031C25.8266 31.1906 27.3516 33.1156 28.6891 35.3281C29.8891 37.2906 30.4016 38.3531 30.3141 38.6406C30.2141 38.9406 29.5266 39.7531 29.3641 39.7531C29.3016 39.7531 28.7516 39.4656 28.1391 39.1281C25.6141 37.6906 21.6266 36.1531 19.1891 35.6781C17.5891 35.3656 15.3766 35.3906 13.9766 35.7281C11.5516 36.3156 9.65156 37.5656 8.30156 39.4656C7.36406 40.7656 6.65156 42.6781 6.61406 43.9531C6.60156 44.2156 6.56406 44.5781 6.51406 44.7531C6.42656 45.0531 6.40156 45.0156 5.88906 44.2781C4.67656 42.4906 3.73906 40.2156 3.23906 37.8781C2.85156 36.0656 2.85156 33.0781 3.22656 30.9781C3.50156 29.5031 4.17656 27.2156 4.68906 26.0531C4.96406 25.4406 5.01406 25.3906 5.95156 25.0031C7.57656 24.3281 9.81406 23.8531 11.7016 23.7656C11.9266 23.7656 12.6766 23.8156 13.3891 23.8781ZM19.0891 37.8031C21.1766 38.2406 25.3141 39.8656 27.3016 41.0281C28.9391 41.9906 29.9391 43.1656 30.2391 44.5031C30.3391 44.9656 30.3266 45.0156 30.1516 44.9281C30.0266 44.8781 29.4891 44.8156 28.9391 44.7781C28.0891 44.7406 27.8141 44.7781 27.0766 45.0531C24.5766 46.0031 22.6766 47.9656 21.8141 50.5031C21.4516 51.5531 21.4141 52.4406 21.6891 53.3281C21.7891 53.6656 21.8766 53.9656 21.8766 53.9906C21.8766 54.1156 17.7016 53.8656 16.8766 53.6906C13.3141 52.9156 10.8016 51.2406 9.63906 48.8531C8.65156 46.8406 8.40156 44.9406 8.87656 43.0781C9.20156 41.8031 9.65156 41.0031 10.5891 40.0031C11.7766 38.7406 13.3641 37.9156 15.1516 37.6406C16.1516 37.4906 17.9266 37.5656 19.0891 37.8031ZM30.2016 47.3156C31.3516 47.9656 33.4141 49.5406 33.9141 50.1656C34.8516 51.3156 34.9641 51.8781 34.3516 52.4656C33.1516 53.6031 30.0891 54.3156 26.8141 54.2281C25.1391 54.1906 25.0141 54.1656 24.5391 53.8531C23.4766 53.1531 23.3516 51.9781 24.1766 50.3156C24.9391 48.7656 26.3141 47.5531 27.9391 46.9781C28.7391 46.6906 29.2016 46.7531 30.2016 47.3156Z" fill="#FF8F00"/>
<path d="M20.5639 12.6779C18.4389 13.2279 14.6514 15.5529 12.4139 17.6654C11.6389 18.3904 12.0014 19.5029 13.0139 19.5029C13.3639 19.5029 13.6764 19.3029 14.7514 18.4404C16.3639 17.1279 17.7514 16.1904 19.0639 15.5404C20.6889 14.7279 21.2514 14.5779 22.4889 14.6654C23.0764 14.7154 23.7139 14.7779 23.9014 14.8279C24.1764 14.8904 24.3139 14.8279 24.6264 14.5279C25.2764 13.8779 25.0889 13.1904 24.1764 12.8029C23.5264 12.5279 21.4014 12.4529 20.5639 12.6779Z" fill="#FF8F00"/>
<path d="M54.2372 36.2905C52.4872 36.778 51.4247 38.1405 51.4497 39.878C51.4622 41.803 52.8872 43.3155 54.8247 43.478C55.9747 43.5655 56.7622 43.253 57.6497 42.378C58.4997 41.528 58.8247 40.653 58.7122 39.503C58.5122 37.3155 56.2997 35.728 54.2372 36.2905ZM55.6622 38.428C56.2497 38.6655 56.5247 39.0405 56.5872 39.678C56.7872 41.4405 54.4997 42.0655 53.6747 40.478C53.2997 39.7655 53.6747 38.7655 54.4122 38.4405C54.9247 38.2155 55.1622 38.2155 55.6622 38.428Z" fill="#FF8F00"/>
<path d="M47.5659 37.5656C46.9909 38.1281 47.3034 39.1781 48.0659 39.2531C48.8534 39.3406 49.2534 39.0031 49.2534 38.2656C49.2534 37.3531 48.2034 36.9156 47.5659 37.5656Z" fill="#FF8F00"/>
<path d="M43.3625 38.6154C43.15 38.8404 43 39.1154 43 39.3154C43 39.7529 43.625 40.3779 44.0625 40.3779C44.2625 40.3779 44.5375 40.2279 44.7625 40.0154C44.975 39.7904 45.125 39.5154 45.125 39.3154C45.125 38.8779 44.5 38.2529 44.0625 38.2529C43.8625 38.2529 43.5875 38.4029 43.3625 38.6154Z" fill="#FF8F00"/>
</svg>
