<svg width="64" height="65" viewBox="0 0 64 65" fill="none" xmlns="http://www.w3.org/2000/svg">
<path fill-rule="evenodd" clip-rule="evenodd" d="M30.7726 0.577519C30.0838 0.752649 29.1068 1.27804 28.5683 1.7659C28.1299 2.1662 28.0172 2.20373 27.2908 2.20373C24.8611 2.21624 22.2935 3.70484 21.2415 5.71884L20.8658 6.43187L20.1143 6.49441C18.8243 6.59449 17.9601 7.0073 16.9957 7.97051C16.4336 8.53188 16.2481 8.71725 16.0438 8.74087C15.943 8.75251 15.8378 8.72485 15.6806 8.68354C14.5284 8.37081 12.9503 8.82114 11.9734 9.74683L11.4599 10.2347L10.3327 10.2597C9.35577 10.2722 9.09276 10.3348 8.36634 10.6725C6.28728 11.6482 5.09746 13.8749 5.49824 16.039L5.64853 16.8646L4.84697 17.7027C3.45675 19.1788 2.76791 21.0427 2.9182 22.9566C2.95577 23.482 3.03092 24.0324 3.08102 24.1826C3.15616 24.4703 3.14364 24.4703 1.94129 24.4703C0.776517 24.4703 0.726419 24.4828 0.363209 24.833L0 25.1958V28.4607C0 32.0009 0.100196 32.9891 0.751468 35.9788C1.75342 40.4947 3.5319 45.0481 5.79883 48.8008C8.62935 53.5168 12.3992 57.2321 16.8078 59.6714L17.6344 60.1343L17.6845 61.5478C17.7221 62.8238 17.7472 62.9989 18.0603 63.4617C18.2607 63.762 18.6114 64.0747 18.937 64.2373C19.4881 64.5 19.5131 64.5 32.0626 64.5C44.6121 64.5 44.6372 64.5 45.1883 64.2373C45.5139 64.0747 45.8646 63.762 46.065 63.4617C46.3781 62.9989 46.4031 62.8238 46.4407 61.5478L46.4908 60.1343L47.38 59.6339C55.4207 55.2056 61.2571 46.3365 63.5616 35.0406L64 32.9015V28.9486V24.9831L63.6744 24.733C63.3863 24.5078 63.1609 24.4703 62.1464 24.4703C60.9816 24.4703 60.9691 24.4703 61.0442 24.1826C61.0943 24.0324 61.1695 23.482 61.207 22.9566C61.2947 21.7808 61.0192 20.4423 60.4681 19.3289C60.0548 18.5033 58.8524 17.1273 58.1761 16.7145C57.8755 16.5269 57.7378 16.3392 57.6751 16.0015C57.4372 14.738 56.4102 13.5497 55.1452 13.0868L55.1266 13.08C54.3935 12.8116 54.3806 12.8068 54.3061 12.2362C54.0431 10.3223 52.3022 8.55845 50.2732 8.18317C49.5468 8.05808 49.4967 8.02055 49.2086 7.47014C48.4571 6.04408 46.8164 4.98079 45.2008 4.8557C44.1487 4.78064 42.984 5.06836 42.1573 5.58124L41.6063 5.9315L41.1804 5.61876C40.2411 4.90573 38.6129 4.33031 37.5108 4.33031H36.872L36.5213 3.5172C35.7448 1.72837 34.1292 0.602538 32.238 0.514973C31.6869 0.477445 31.0356 0.514973 30.7726 0.577519ZM32.8642 2.60402C33.8912 2.90425 34.9432 4.30529 34.9432 5.35607C34.9432 5.5312 35.056 5.81891 35.1937 5.99404C35.4317 6.29427 35.5194 6.30678 36.9096 6.35681C38.6755 6.40685 39.3644 6.66954 40.5041 7.69531C41.4184 8.52092 41.7691 8.54594 42.5456 7.8204C42.8462 7.5452 43.3346 7.20744 43.6227 7.06984C45.3135 6.30678 47.3675 7.40759 47.7683 9.2965C47.9061 9.88443 48.144 10.0095 49.3088 10.0971C50.6114 10.1972 51.3378 10.5975 51.9014 11.5106C52.227 12.0235 52.2896 12.2737 52.3523 13.2369C52.4274 14.6004 52.6153 14.8381 53.6297 14.8381C54.3311 14.8381 55.0325 15.1634 55.4082 15.6762C55.5335 15.8514 55.6712 16.3017 55.7213 16.6895C55.7714 17.0898 55.8466 17.4651 55.8967 17.5526C55.9468 17.6277 56.3851 17.9529 56.8611 18.2782C57.8505 18.9287 58.3515 19.5041 58.8274 20.5549C59.1155 21.1678 59.1781 21.443 59.1781 22.4062C59.1781 23.0317 59.1029 23.7447 59.0153 23.9949L58.8399 24.4703H36.847C19.3628 24.4703 14.7789 24.5078 14.5284 24.6329C13.8646 24.9706 13.802 26.0214 14.4031 26.3467C14.5534 26.4217 23.1327 26.4718 38.375 26.4718H62.1213V28.4732V30.4747H32.0626H2.00391V28.4732V26.4718H6.66301C11.272 26.4718 11.3221 26.4718 11.6102 26.1965C11.9734 25.8588 11.9859 25.2333 11.6603 24.833C11.4224 24.533 11.4098 24.5328 8.35866 24.4953H8.35864H8.35861H8.35859H8.35857H8.35855L8.35382 24.4953L5.28532 24.4578L5.13503 24.0575C4.43366 22.056 5.31037 19.5166 7.12642 18.3532C7.99061 17.8028 8.11585 17.4275 7.74012 16.5769C7.0137 14.9007 7.63992 13.1994 9.2681 12.4739C9.90685 12.1861 10.483 12.1486 11.3722 12.3488C12.2489 12.5614 12.5495 12.4488 12.9879 11.7233C13.4638 10.9602 13.8771 10.685 14.6286 10.6225C15.092 10.5724 15.3425 10.635 15.8184 10.8852C16.883 11.4606 17.2712 11.3105 17.8975 10.0471C18.4611 8.93373 19.6008 8.37081 20.991 8.50841C21.9303 8.60848 22.2685 8.39583 22.6067 7.49516C23.0951 6.19419 23.9593 5.29352 25.2994 4.65555C26.0634 4.29278 26.2012 4.26776 27.5538 4.26776H28.9941L29.7456 3.50469C30.7476 2.50395 31.6368 2.24126 32.8642 2.60402ZM61.946 32.814C60.8689 38.4431 59.917 41.3953 57.9006 45.4233C55.0826 51.04 51.0622 55.3557 46.2153 57.9827L45.2759 58.4955H43.5601C41.9444 58.4955 41.8317 58.5081 41.5061 58.7833C41.0427 59.1961 41.0427 59.7965 41.5061 60.2093C41.8192 60.472 41.9569 60.497 43.1593 60.497H44.4744L44.4368 61.4602L44.3992 62.436H32.0626H19.726L19.6885 61.4602L19.6509 60.497H29.0317C38.3374 60.497 38.425 60.497 38.7507 60.2343C39.2141 59.8716 39.2141 59.121 38.7507 58.7582C38.425 58.4955 38.3374 58.4955 28.6309 58.4955H18.8493L17.91 57.9827C11.8607 54.7052 7.13894 48.8008 4.29589 40.9825C3.40665 38.5307 2.90568 36.5918 2.17926 32.814L2.10411 32.4762H32.0626H62.0211L61.946 32.814ZM31.0981 10.097C29.9082 10.4722 29.5075 11.1603 30.0711 11.8858C30.3717 12.2611 30.8977 12.3111 31.5991 12.0234C31.8495 11.9233 32.3505 11.8358 32.7137 11.8358C34.0413 11.8483 35.1184 12.6739 35.5693 14.0374C35.7196 14.4877 35.945 14.9005 36.0703 14.9631C36.4585 15.1632 37.0472 15.1132 37.3227 14.838C37.736 14.4252 37.6985 13.8247 37.1975 12.7614C36.1204 10.4222 33.5779 9.30888 31.0981 10.097ZM15.0418 17.3274C15.5929 16.2391 16.7577 15.2634 17.9475 14.9006C19.1498 14.5128 21.3166 14.788 21.7299 15.3759C22.2058 16.0639 21.6547 17.0647 20.8782 16.9146C20.6528 16.8645 20.1017 16.7895 19.6258 16.752C18.8868 16.6894 18.699 16.7269 18.0853 17.0272C17.4966 17.3149 17.2962 17.515 16.8328 18.2155C16.2567 19.1162 15.9185 19.3164 15.3549 19.0912C14.7412 18.866 14.616 18.153 15.0418 17.3274ZM44.2114 16.5266C43.3598 16.7768 42.959 17.1271 42.959 17.64C42.9715 18.4531 43.5977 18.8033 44.5371 18.5156C44.8627 18.4155 45.3011 18.3405 45.5265 18.3405C46.566 18.3405 47.7058 19.0785 48.2193 20.0793C48.6576 20.9549 49.622 21.0175 50.0854 20.2044C50.2482 19.9042 50.2482 19.8166 50.0478 19.2912C49.9226 18.9785 49.5469 18.403 49.1962 18.0278C47.9437 16.6517 45.9273 16.0513 44.2114 16.5266ZM27.3409 19.5292C28.0298 18.8662 28.6309 18.5159 29.5577 18.2657C30.8979 17.8904 31.6869 18.2032 31.6869 19.0913C31.6869 19.6542 31.2486 20.0921 30.6975 20.0921C30.0587 20.0921 29.42 20.3673 28.7186 20.9302C27.8669 21.6182 27.4161 21.6808 26.9652 21.1679C26.5018 20.63 26.5895 20.2547 27.3409 19.5292ZM57.2747 36.3791C56.924 36.7544 56.7236 37.5425 56.8614 37.9177C56.9991 38.268 57.45 38.6057 57.8132 38.6057C58.7901 38.6057 59.3537 36.6918 58.5021 36.2415C58.0888 36.0163 57.5502 36.0789 57.2747 36.3791ZM55.2454 41.6956C55.521 41.0201 55.7464 40.6698 55.9719 40.5447C56.1472 40.4447 56.3977 40.3696 56.5229 40.3571C56.811 40.3571 57.4873 41.0201 57.4873 41.3078C57.4873 41.6205 56.5605 43.7471 55.784 45.1982C54.4564 47.6875 52.1519 50.8774 51.5132 51.1276C51.1124 51.2777 50.5237 51.0776 50.3484 50.7273C50.0728 50.2269 50.2231 49.8141 50.9871 48.8634C52.5652 46.912 54.256 44.0598 55.2454 41.6956Z" fill="#FF8F00"/>
</svg>
