<svg width="64" height="65" viewBox="0 0 64 65" fill="none" xmlns="http://www.w3.org/2000/svg">
<g clip-path="url(#clip0_4113_2537)">
<path d="M25.05 0.674975C24.625 0.974975 23.275 3.14997 23.1125 3.78747C22.9 4.67497 23.0375 5.77497 23.4875 6.67497C24.1125 7.93747 24.0625 8.27497 23.125 9.74997C22.7125 10.3875 22.375 11.05 22.375 11.225C22.375 11.3875 22.5375 11.6875 22.7375 11.8875C23.4125 12.5625 23.9625 12.3375 24.85 11.025C25.8125 9.57497 26.05 8.97497 26.05 7.91247C26.0375 7.13747 25.975 6.88747 25.5875 6.07497C24.9125 4.69997 24.9625 4.39997 26.1125 2.68747C26.725 1.78747 26.775 1.26247 26.3125 0.812475C25.975 0.462475 25.4375 0.399975 25.05 0.674975Z" fill="#FF8F00"/>
<path d="M32.5124 0.699786C32.1249 0.974786 30.7874 3.02479 30.6249 3.59979C30.5624 3.84979 30.4999 4.42479 30.4999 4.87479C30.4999 5.56229 30.5749 5.84979 30.9499 6.62479C31.5749 7.92479 31.5249 8.34979 30.5874 9.74979C29.7624 10.9873 29.6999 11.3498 30.2374 11.8873C30.9249 12.5748 31.4249 12.3498 32.3999 10.8998C33.2499 9.64979 33.4999 8.94979 33.4999 7.89979C33.4999 7.18729 33.4249 6.91229 33.0624 6.13729C32.4124 4.78729 32.4499 4.42479 33.3749 3.01229C33.7874 2.38729 34.1249 1.76229 34.1249 1.62479C34.1249 0.749786 33.1999 0.224786 32.5124 0.699786Z" fill="#FF8F00"/>
<path d="M39.9876 0.624851C39.8751 0.687351 39.4501 1.26235 39.0251 1.89985C37.7501 3.83735 37.6001 5.14985 38.4876 6.81235C39.0626 7.88735 39.0126 8.23735 38.1251 9.62485C37.3001 10.9124 37.1876 11.4374 37.6251 11.8749C38.2876 12.5374 38.9126 12.2999 39.7251 11.0999C40.8251 9.46235 40.9376 9.18735 40.9376 7.98735C40.9376 7.03735 40.9001 6.83735 40.5376 6.11235C39.8751 4.79985 39.9126 4.49985 40.8751 2.99985C41.2876 2.36235 41.6251 1.69985 41.6251 1.52485C41.6251 0.849851 40.5876 0.274851 39.9876 0.624851Z" fill="#FF8F00"/>
<path d="M26.625 14.5124C17.8625 15.0124 10.2 16.5999 5.425 18.9249C2.7875 20.2249 1.175 21.5999 0.3875 23.2499L0.0625 23.9374V27.4999C0.075 30.2499 0.125 31.3874 0.2875 32.4999C1.65 41.3749 6.4125 48.9874 13.6875 53.8624C14.5875 54.4624 15.95 55.2749 16.725 55.6624L18.125 56.3874V58.4749C18.125 60.2499 18.1625 60.6374 18.3625 61.0874C19.3375 63.2374 25.7875 64.6874 33.3125 64.4624C39.75 64.2624 44.1875 63.1374 45.4375 61.3874L45.8125 60.8499L45.85 58.6124L45.8875 56.3749L47.35 55.6249C54.625 51.9124 60.2375 45.1249 62.675 37.1124C63.6625 33.8374 64.05 30.7249 63.975 26.5624L63.9375 23.9374L63.525 23.0874C61.5125 18.9999 52.9 15.8749 40.625 14.7499C36.55 14.3874 30.7125 14.2874 26.625 14.5124ZM36.9375 16.6249C45.1 17.0624 52.0375 18.3999 56.8875 20.4874C58.575 21.2249 59.725 21.9499 60.7 22.9249C61.95 24.1874 62.15 25.0374 61.4625 26.2749C61.325 26.5374 61.1625 26.7499 61.1 26.7499C61.05 26.7499 60.6875 26.5499 60.2875 26.2999C56.2125 23.6874 48.725 21.7999 39.4375 21.0374C36 20.7624 28 20.7624 24.5625 21.0374C15.3 21.7999 7.775 23.6874 3.7125 26.2999C3.3125 26.5499 2.95 26.7499 2.8875 26.7499C2.7125 26.7499 2.125 25.4999 2.125 25.1499C2.125 23.9749 3.45 22.4249 5.375 21.3374C9.8875 18.8124 18.2375 17.0374 27.8125 16.5874C29.7625 16.4874 34.8 16.5124 36.9375 16.6249ZM36.25 22.9999C45.5875 23.4499 52.825 24.9124 57.7375 27.3374C59.7 28.2999 59.725 28.1499 57.4375 29.2499C55.4875 30.1999 53.8125 30.8124 51.8125 31.3124L50.1875 31.7249L50.1 30.9749C49.975 29.8999 49.6875 29.1249 49.1125 28.3249C47.65 26.2749 44.7625 25.5374 42.525 26.6374C41.425 27.1749 40.475 28.1374 39.9625 29.2124C39.6 29.9874 39.5625 30.1624 39.5625 31.3124C39.5625 31.9999 39.6 32.7124 39.65 32.8999C39.75 33.2249 39.7375 33.2249 39 33.3124C37.5875 33.4749 31.975 33.5624 28.775 33.4749C21.2625 33.2749 14.5375 32.2124 9.3125 30.4124C7.6375 29.8249 5.0125 28.6249 4.7625 28.3249C4.6375 28.1749 4.9125 27.9999 6.275 27.3249C12.675 24.1499 24.5625 22.4374 36.25 22.9999ZM46.2125 28.5499C46.775 28.8374 47.4125 29.4874 47.675 30.0624C47.925 30.5749 48.075 31.8499 47.9125 32.0874C47.8125 32.2249 44.575 32.7749 42.8625 32.9499C42.075 33.0249 42.0125 33.0124 41.8625 32.7374C41.75 32.5499 41.6875 32.0374 41.6875 31.4374C41.6875 30.5749 41.7375 30.3624 42.0375 29.8499C42.425 29.1874 43.025 28.6874 43.7125 28.4249C44.3125 28.1999 45.675 28.2624 46.2125 28.5499ZM5.1625 31.0249C13.3875 35.1499 30.125 36.7874 44.475 34.8749C51.8125 33.8999 57.425 32.1624 60.8625 29.8249L61.8625 29.1374L61.8 29.9749C61.3 36.1874 59.2125 41.5874 55.5 46.2499C54.325 47.7249 51.8125 50.1499 50.3 51.2749C46.1125 54.3874 41.0625 56.3624 36.0125 56.8749C34.35 57.0374 29.6 57.0374 28.025 56.8749C21.4625 56.1749 15.5875 53.4124 10.9 48.8249C8.6375 46.6124 7.0125 44.4749 5.5375 41.7749C3.8375 38.6624 2.6 34.5624 2.3125 31.1249C2.275 30.6124 2.2125 29.9499 2.175 29.6499L2.1125 29.1249L3.125 29.8124C3.6875 30.1999 4.6 30.7374 5.1625 31.0249ZM24.275 58.4249C26.725 58.9624 28.5 59.1249 31.9875 59.1249C36.4625 59.1249 39.1625 58.7499 42.475 57.6874L43.75 57.2749V58.7499C43.75 60.2249 43.75 60.2374 43.4125 60.4749C42.525 61.0999 39.6375 61.8249 36.75 62.1499C34.65 62.3749 28.8625 62.3499 26.7875 62.0874C23.9125 61.7249 21.55 61.1374 20.7125 60.5749L20.3125 60.2999L20.275 58.7874L20.2375 57.2749L21.5625 57.6999C22.2875 57.9249 23.5125 58.2499 24.275 58.4249Z" fill="#FF8F00"/>
<path d="M23.8125 25.1125C22.4 25.4625 21.3875 26.7125 21.375 28.1125C21.375 29.05 21.5875 29.675 22.15 30.3125C22.8125 31.0625 23.5 31.375 24.5125 31.375C25.975 31.375 27.175 30.5 27.575 29.1625C27.8 28.425 27.8 28.075 27.55 27.2625C27.1 25.725 25.375 24.7375 23.8125 25.1125ZM25.275 27.4625C25.5875 27.75 25.675 28.3 25.45 28.725C24.9625 29.6625 23.5 29.2875 23.5 28.2125C23.5 27.8 23.8125 27.375 24.25 27.2125C24.5125 27.1125 25.025 27.2375 25.275 27.4625Z" fill="#FF8F00"/>
<path d="M34.6125 26.2875C34.35 26.4875 34.125 26.925 34.125 27.25C34.125 27.625 34.7875 28.25 35.1875 28.25C35.6625 28.25 36.25 27.625 36.25 27.125C36.25 26.3625 35.2125 25.825 34.6125 26.2875Z" fill="#FF8F00"/>
<path d="M14.5501 27.25C13.8626 27.525 13.6751 28.4375 14.1876 28.9375C14.8251 29.5875 16.0001 29.1375 16.0001 28.2625C16.0001 27.55 15.1751 26.9875 14.5501 27.25Z" fill="#FF8F00"/>
<path d="M6.15017 35.9375C5.51267 36.475 5.63767 37.075 6.93767 39.8125C8.21267 42.45 9.66267 44.5125 11.8127 46.7375C16.1252 51.175 21.5377 53.8875 27.6627 54.6875C29.1752 54.875 31.0752 54.9375 31.4377 54.8C31.6752 54.7 32.0002 54.1125 32.0002 53.75C32.0002 53.6 31.8377 53.3125 31.6377 53.1125C31.3002 52.775 31.2002 52.75 30.3252 52.75C27.3627 52.75 23.4002 51.7875 20.3252 50.3375C14.8877 47.75 10.2377 42.75 8.12517 37.2125C7.67517 36.05 7.47517 35.7875 6.92517 35.675C6.62517 35.625 6.46267 35.675 6.15017 35.9375Z" fill="#FF8F00"/>
</g>
<defs>
<clipPath id="clip0_4113_2537">
<rect width="64" height="64" fill="white" transform="translate(0 0.5)"/>
</clipPath>
</defs>
</svg>
