<svg width="64" height="65" viewBox="0 0 64 65" fill="none" xmlns="http://www.w3.org/2000/svg">
<g clip-path="url(#clip0_4113_2554)">
<path d="M11.2376 0.700004C9.45014 1.25 8.42514 3.575 9.22514 5.2375C9.37514 5.5375 11.4626 8.4125 13.8751 11.625L18.2501 17.4625L17.8251 18.1875C17.3626 18.9375 16.8251 20.45 16.6876 21.3375L16.6001 21.875H14.3126C12.0501 21.875 12.0251 21.875 11.3626 22.225C10.9376 22.4375 10.5501 22.775 10.3126 23.1125C9.97514 23.6 9.93764 23.75 9.90014 24.8125C9.85014 26.1625 10.0376 26.9125 10.6376 27.7375C11.0751 28.325 11.8376 28.8875 12.5376 29.1375L13.0001 29.3V30.375C13.0001 36.0875 16.7251 41.925 22.0626 44.5625C24.1001 45.5625 25.8126 46.075 28.0376 46.3125L28.7501 46.3875V50.425C28.7501 52.8 28.7001 54.7625 28.6126 55.1875C28.2126 57.325 26.7001 58.65 24.3876 58.8625C23.0626 58.9875 22.3001 59.3625 21.7751 60.15C21.4751 60.6125 21.4376 60.7875 21.4376 61.7C21.4376 62.65 21.4626 62.7625 21.8251 63.275C22.0626 63.6 22.4876 63.95 22.8751 64.15L23.5251 64.5H32.4251H41.3126L41.9626 64.2C43.5626 63.45 44.0376 61.375 42.9376 59.925C42.4876 59.325 41.5126 58.875 40.6751 58.875C38.4001 58.875 36.5251 57.2 36.2501 54.9375C36.1251 53.9375 35.8876 53.625 35.2501 53.625C34.5001 53.625 34.3251 53.925 34.4001 55.1C34.4876 56.2 34.8376 57.175 35.5126 58.0875C35.7376 58.425 35.9626 58.725 35.9751 58.775C36.0001 58.8375 34.4001 58.875 32.4376 58.875H28.8501L29.0501 58.6C29.7001 57.7125 30.0251 57.1 30.2751 56.375C30.5251 55.6125 30.5501 55.2875 30.6001 50.9625L30.6501 46.375H32.5126H34.3751V48.475C34.3751 50.85 34.4251 51 35.2751 51C36.0876 51 36.1876 50.7625 36.2251 48.425L36.2626 46.3875L36.8501 46.3125C41.1501 45.7875 44.5001 44.1625 47.3126 41.2375C50.1751 38.25 51.6251 34.85 51.9376 30.375L52.0126 29.3125L52.7626 28.95C54.0376 28.3375 54.8876 27.1 55.0626 25.6C55.2376 24.025 54.6376 22.725 53.4626 22.175C52.8501 21.9 52.6751 21.875 50.5626 21.875H48.3126L48.1001 20.8375C47.5001 17.95 45.1626 15.2125 42.4376 14.2375L41.6376 13.9375L41.5626 13.375C41.1876 10.2875 39.9376 8.0375 37.6626 6.425C34.7001 4.3 30.6376 4.2125 27.5251 6.2C25.2126 7.6875 23.6126 10.3125 23.3876 12.9625L23.3126 13.9L22.6876 14.1375C22.3501 14.2625 22.0251 14.375 21.9751 14.375C21.9376 14.375 20.3876 11.6 18.5501 8.2125C16.4876 4.425 15.0126 1.8625 14.7126 1.5375C13.8626 0.625004 12.5251 0.300004 11.2376 0.700004ZM13.1251 2.65C13.4501 2.8875 14.2001 4.15 16.8501 9C18.6626 12.3375 20.1751 15.15 20.2126 15.25C20.2376 15.3625 20.1001 15.5625 19.8876 15.725L19.5001 16L15.1876 10.25C12.7501 7 10.8751 4.375 10.8626 4.2125C10.8126 3.325 10.9751 2.9625 11.5376 2.625C12.0626 2.3 12.6251 2.3125 13.1251 2.65ZM34.1751 6.875C35.5501 7.225 36.5501 7.8 37.5626 8.8125C38.7876 10.0375 39.6251 11.7875 39.6251 13.15V13.625H39.0001C36.9626 13.625 34.5751 14.6 33.0126 16.0625L32.4126 16.625L32.0501 16.2375C31.4626 15.6125 30.1751 14.75 29.2751 14.375C28.2876 13.9625 26.7751 13.625 25.8751 13.625C25.2501 13.625 25.2501 13.625 25.2501 13.2125C25.2501 11.625 26.4876 9.35 27.9626 8.2125C29.8376 6.775 31.9876 6.3125 34.1751 6.875ZM28.0251 15.9125C29.1251 16.3125 30.1126 16.9125 30.7751 17.5875L31.2876 18.1125L30.9501 18.8625C30.5751 19.7125 30.3126 20.55 30.1876 21.3375L30.1001 21.875H24.3001C21.1126 21.875 18.5001 21.825 18.5001 21.775C18.5001 21.725 18.5876 21.35 18.6876 20.95C19.3376 18.45 21.3626 16.4375 23.9001 15.75C25.1376 15.4125 26.8376 15.475 28.0251 15.9125ZM40.7626 15.675C43.5126 16.2625 45.8001 18.625 46.3126 21.4L46.4001 21.875H39.2001C35.2376 21.875 32.0001 21.825 32.0001 21.775C32.0001 21.725 32.0876 21.35 32.1876 20.9625C32.7001 18.975 34.1626 17.1875 36.0376 16.225C37.3251 15.575 39.2126 15.35 40.7626 15.675ZM52.8626 23.9875C53.2001 24.325 53.3126 25.0125 53.1376 25.7125C52.9376 26.5 52.5626 26.9875 51.9501 27.2625C51.4626 27.4875 50.8001 27.5 36.4876 27.5C21.6251 27.5 21.5501 27.5 21.2751 27.75C20.9001 28.1 20.9001 28.775 21.2751 29.125C21.5501 29.375 21.6251 29.375 35.8501 29.375H50.1376L50.0626 30.4C49.8751 32.8375 49.3876 34.65 48.4001 36.5625C46.4626 40.3125 43.0001 43.025 38.7626 44.1L37.4376 44.4375H32.5001C27.2626 44.4375 27.1126 44.425 25.0626 43.7875C19.3751 42.0125 15.2126 36.7125 14.9126 30.8375L14.8376 29.375H16.3376C17.6626 29.375 17.8626 29.35 18.1001 29.125C18.4751 28.775 18.4751 28.1 18.1001 27.75C17.8501 27.5125 17.6751 27.5 15.6376 27.5C13.0626 27.5 12.6001 27.3625 12.0626 26.45C11.6376 25.725 11.6126 24.475 12.0251 24.0375L12.2876 23.75H32.4626C52.2626 23.75 52.6251 23.75 52.8626 23.9875ZM41.2501 60.875C41.7876 61.1625 41.7501 62.325 41.1876 62.55C41.0751 62.5875 37.1251 62.625 32.4001 62.625H23.8251L23.5376 62.35C23.1626 62 23.1626 61.425 23.5251 61.0375L23.7876 60.75H32.4001C37.7876 60.75 41.1001 60.8 41.2501 60.875Z" fill="#FF8F00"/>
</g>
<defs>
<clipPath id="clip0_4113_2554">
<rect width="64" height="64" fill="white" transform="translate(0 0.5)"/>
</clipPath>
</defs>
</svg>
