<svg width="64" height="65" viewBox="0 0 64 65" fill="none" xmlns="http://www.w3.org/2000/svg">
<path d="M0.627796 0.67517C-0.00997772 1.02551 0.00252767 0.850341 0.00252767 9.57136C-0.0099777 18.7053 -0.00997772 18.7178 0.865398 20.4945C1.47816 21.7207 2.66617 22.9845 3.84168 23.6476L4.61701 24.0855L4.64202 42.9164L4.67954 61.7473L4.94215 62.3229C5.32982 63.1487 5.91757 63.7493 6.71791 64.1497C7.30566 64.4374 7.59329 64.5 8.36862 64.5C9.93179 64.5 11.1448 63.7242 11.7951 62.3229L12.0577 61.7473L12.0952 42.9164L12.1327 24.0855L12.9081 23.6476C14.0711 22.9845 15.2591 21.7207 15.8718 20.4945C16.7472 18.7178 16.7472 18.6928 16.7472 9.59638C16.7472 0.800292 16.7597 0.962951 16.0594 0.650146C15.6467 0.462462 15.3466 0.462462 14.9339 0.650146C14.2461 0.962951 14.2461 0.90039 14.2461 8.3827V15.2644H13.1207H11.9952V8.3827C11.9952 3.32776 11.9577 1.4259 11.8451 1.18817C11.6825 0.825317 11.1573 0.499999 10.7446 0.499999C10.332 0.499999 9.80674 0.825317 9.64417 1.18817C9.53162 1.4259 9.4941 3.32776 9.4941 8.3827V15.2644H8.36862H7.24314V8.3827C7.24314 3.32776 7.20562 1.4259 7.09307 1.18817C6.83046 0.600097 6.06763 0.349852 5.42986 0.650146C4.74206 0.962951 4.74206 0.90039 4.74206 8.3827V15.2644H3.61658H2.4911V8.3827C2.4911 3.32776 2.45358 1.4259 2.34103 1.18817C2.06591 0.587585 1.24056 0.33734 0.627796 0.67517ZM14.0836 18.1923C13.871 19.5311 12.4329 21.2202 11.0448 21.7583C10.6446 21.9209 10.1569 22.2087 9.96931 22.4089L9.61916 22.7717V41.928C9.61916 62.7483 9.65667 61.5847 8.93136 61.91C8.51869 62.0977 8.21856 62.0977 7.80588 61.91C7.08057 61.5847 7.11808 62.7483 7.11808 41.928V22.7968L6.79294 22.4089C6.61787 22.1962 6.40528 22.021 6.31774 22.021C5.93007 22.021 4.61701 21.2202 4.02926 20.6322C3.36647 19.969 2.76621 18.9055 2.65367 18.1923L2.57863 17.7669H8.36862H14.1586L14.0836 18.1923Z" fill="#FF8F00"/>
<path d="M61.6913 0.987976C60.5533 1.75122 58.9401 3.20264 57.8647 4.42884C55.226 7.40674 53.4128 11.1354 52.6124 15.1643C52.3373 16.5407 52.3373 16.8535 52.2873 26.2877C52.2498 37.0107 52.2373 36.873 53.0251 38.437C53.3127 39.0001 53.8505 39.6632 54.9634 40.7893L56.5141 42.3659L56.5391 52.0629C56.5766 61.6097 56.5766 61.7598 56.8392 62.3229C57.2269 63.1487 57.8147 63.7493 58.615 64.1497C59.2028 64.4374 59.4904 64.5 60.2657 64.5C61.8289 64.5 63.0419 63.7242 63.6922 62.3229L63.9548 61.7473L63.9923 31.6554C64.0173 9.14594 63.9798 1.47595 63.8798 1.2132C63.7172 0.825317 63.192 0.499999 62.7293 0.499999C62.5542 0.499999 62.0915 0.725219 61.6913 0.987976ZM61.3787 61.3469C61.2161 61.7223 60.6909 62.0601 60.2657 62.0601C59.9031 62.0601 59.3153 61.7348 59.1902 61.472C59.1277 61.3469 59.0527 56.7549 59.0152 51.2746L58.9526 41.3023L57.1894 39.5131C56.0389 38.3369 55.3261 37.5111 55.126 37.0982L54.8259 36.4726L54.7884 27.2887C54.7633 19.6812 54.7884 17.8419 54.9509 16.6533C55.5012 12.3616 57.4145 8.42023 60.3908 5.39228L61.4537 4.31623L61.4912 32.6564C61.5162 53.8021 61.4787 61.0842 61.3787 61.3469Z" fill="#FF8F00"/>
<path d="M29.2528 8.77068C26.9518 9.03344 24.1131 9.83422 22.0622 10.8102C20.8117 11.3982 20.499 11.7111 20.499 12.3617C20.499 12.9373 21.0743 13.5128 21.637 13.5128C21.8621 13.5128 22.775 13.2125 23.6754 12.8372C27.3019 11.3232 31.0035 10.8227 34.7927 11.3232C39.3321 11.9238 43.2213 13.7631 46.6227 16.9537C47.7982 18.0422 47.9358 18.1423 48.3985 18.1423C49.1238 18.1423 49.6365 17.6168 49.6365 16.8786C49.6365 16.3906 49.574 16.2905 48.6986 15.4397C44.8095 11.661 39.8949 9.35876 34.48 8.77068C33.0794 8.60802 30.6284 8.62053 29.2528 8.77068Z" fill="#FF8F00"/>
<path d="M30.1903 14.8388C27.4517 15.1391 24.4129 16.2652 22.0118 17.8668C20.6112 18.7927 18.2727 21.1325 17.3473 22.5213C15.9967 24.5608 15.1089 26.6504 14.5961 29.0152C14.2085 30.7293 14.221 34.3078 14.5961 36.047C16.1468 43.1415 21.4366 48.4216 28.5396 49.9481C30.3654 50.336 33.6418 50.336 35.4551 49.9481C37.2809 49.5602 38.5064 49.1223 40.1446 48.2715C44.9092 45.8316 48.2481 41.4023 49.4111 35.997C49.7737 34.2953 49.7988 31.0171 49.4611 29.3405C48.3481 23.71 44.8591 19.1055 39.8195 16.603C37.4434 15.4269 35.2675 14.9014 32.5038 14.8263C31.5034 14.8013 30.4655 14.8138 30.1903 14.8388ZM34.2671 17.4539C39.1567 18.1921 43.4085 21.2826 45.672 25.7745C46.2972 27.0257 46.86 28.8025 47.0726 30.2664C48.3231 38.562 42.5706 46.3571 34.2546 47.6208C27.6642 48.6093 21.1364 45.1309 18.2477 39.1C14.8337 31.9555 17.4474 23.4722 24.3128 19.3682C27.2141 17.629 30.8406 16.9284 34.2671 17.4539Z" fill="#FF8F00"/>
<path d="M31.4287 21.1452C31.016 21.3078 30.7534 21.7708 30.7534 22.3088C30.7534 23.56 32.5042 23.9854 33.0794 22.8844C33.6422 21.7833 32.5792 20.6697 31.4287 21.1452Z" fill="#FF8F00"/>
<path d="M26.8268 22.2836C23.5004 23.9602 21.1494 27.2634 20.6366 30.967C20.4115 32.5936 20.4366 32.8689 20.9243 33.3569C21.3995 33.8323 21.7996 33.8949 22.3624 33.5946C22.8001 33.3694 22.9376 33.0065 23.1002 31.5801C23.2503 30.2664 23.6754 28.9401 24.2757 27.9266C24.901 26.8505 26.5142 25.3115 27.6897 24.6609C28.2399 24.3481 28.7901 24.0228 28.9027 23.9227C29.2278 23.6474 29.3154 22.9968 29.0778 22.5463C28.6776 21.7831 27.9648 21.6955 26.8268 22.2836Z" fill="#FF8F00"/>
<path d="M49.3612 45.394C49.2487 45.444 48.4859 46.1823 47.6855 47.0331C44.4466 50.4239 41.1952 52.3258 36.8434 53.3643C31.6411 54.603 25.8887 53.7396 21.3117 51.0495C20.6114 50.6366 20.0361 50.3864 19.786 50.3864C18.9232 50.3613 18.2979 51.2622 18.623 52.063C18.8231 52.526 19.5109 52.9889 21.3117 53.8898C31.391 58.9447 43.6338 56.2546 50.6743 47.446C50.8869 47.1707 51.0119 46.8579 51.0119 46.5952C51.0119 45.8194 50.024 45.1062 49.3612 45.394Z" fill="#FF8F00"/>
<path d="M15.3842 47.4708C15.2216 47.5584 15.009 47.7711 14.9215 47.9338C14.2212 49.1975 15.8719 50.4488 16.8848 49.4353C17.8978 48.4218 16.6472 46.7702 15.3842 47.4708Z" fill="#FF8F00"/>
</svg>
