<svg width="32" height="32" viewBox="0 0 32 32" fill="none" xmlns="http://www.w3.org/2000/svg">
<path fill-rule="evenodd" clip-rule="evenodd" d="M8.05078 4.07499C8.05078 3.34322 8.644 2.75 9.37577 2.75H22.6256C23.3574 2.75 23.9506 3.34322 23.9506 4.07499V13.3499H8.05078V4.07499ZM9.90369 6.72548C9.90369 6.28642 10.2596 5.93049 10.6987 5.93049C11.1377 5.93049 11.4937 6.28642 11.4937 6.72548V9.37545C11.4937 9.81451 11.1377 10.1704 10.6987 10.1704C10.2596 10.1704 9.90369 9.81451 9.90369 9.37545V6.72548ZM8.05078 14.9401H23.9506V27.925C23.9506 28.6568 23.3574 29.25 22.6256 29.25H9.37577C8.644 29.25 8.05078 28.6568 8.05078 27.925V14.9401ZM9.90369 17.5893C9.90369 17.1503 10.2596 16.7943 10.6987 16.7943C11.1377 16.7943 11.4937 17.1503 11.4937 17.5893V21.2993C11.4937 21.7384 11.1377 22.0943 10.6987 22.0943C10.2596 22.0943 9.90369 21.7384 9.90369 21.2993V17.5893Z" fill="white"/>
</svg>
