<svg width="64" height="65" viewBox="0 0 64 65" fill="none" xmlns="http://www.w3.org/2000/svg">
<g clip-path="url(#clip0_4113_2549)">
<path d="M27.835 12.3856C27.635 12.5984 27.4725 12.9043 27.4725 13.0638C27.4725 13.2234 27.635 13.5293 27.835 13.742L28.1975 14.1277H29.835H31.4725V15.258V16.375L31.0725 16.4415C30.8475 16.4681 30.06 16.5612 29.335 16.641C25.235 17.0665 20.785 18.7686 17.16 21.3085C12.2225 24.7793 8.55996 29.5931 6.40996 35.4574C5.43496 38.1037 4.59746 42.1862 4.59746 44.2872V45.0718L3.80996 45.1383C1.98496 45.2979 0.647462 46.7074 0.509962 48.6223C0.397462 50.1516 1.24746 51.6809 2.57246 52.3324L3.15996 52.625H32.4725H61.785L62.3725 52.3324C65.6975 50.7101 64.81 45.4574 61.16 45.1383L60.385 45.0851L60.2475 43.3963C59.9225 39.7527 59.035 36.4282 57.5475 33.1835C53.3975 24.2207 45.6475 18.1835 36.385 16.7207C35.6725 16.6144 34.8225 16.5213 34.485 16.5213C33.485 16.5213 33.4725 16.508 33.4725 15.2447V14.1277H35.11H36.7475L37.11 13.742C37.31 13.5293 37.4725 13.2234 37.4725 13.0638C37.4725 12.9043 37.31 12.5984 37.11 12.3856L36.7475 12H32.4725H28.1975L27.835 12.3856ZM35.81 18.7154C45.61 20.0718 53.9725 27.3856 57.085 37.3324C57.8225 39.6729 58.1225 41.2952 58.41 44.2739L58.485 45.1117H32.4725H6.45996L6.53496 44.008C7.53496 31.0027 16.885 20.484 28.985 18.7287C30.76 18.4761 33.9975 18.4628 35.81 18.7154ZM61.285 47.2394C61.9975 47.4122 62.4725 48.0372 62.4725 48.8085C62.4725 49.4867 62.1975 50.0452 61.7225 50.3511C61.3975 50.5505 58.9975 50.5638 32.4725 50.5638C5.94746 50.5638 3.54746 50.5505 3.22246 50.3511C2.40996 49.8324 2.20996 48.5691 2.82246 47.7846C3.02246 47.5319 3.33496 47.3059 3.59746 47.2394C4.20996 47.0931 60.66 47.0798 61.285 47.2394Z" fill="#FF8F00"/>
</g>
<defs>
<clipPath id="clip0_4113_2549">
<rect width="64" height="64" fill="white" transform="translate(0 0.5)"/>
</clipPath>
</defs>
</svg>
