<svg width="166" height="48" viewBox="0 0 166 48" fill="none" xmlns="http://www.w3.org/2000/svg">
<path d="M16.5449 0.268727C15.6991 0.663137 14.8825 1.42274 14.5617 2.13852C14.3575 2.60597 14.1971 2.76665 13.9638 2.76665C13.045 2.78126 11.7034 3.81841 11.2222 4.88478C10.2451 7.03212 11.9222 9.77837 14.1971 9.77837C14.5033 9.77837 14.6054 9.86602 14.6638 10.1728C14.7221 10.4065 14.8096 10.8447 14.8825 11.1661C14.9554 11.5021 14.9554 11.8089 14.8825 11.8965C14.6492 12.174 14.2992 13.7517 14.2992 14.5259C14.2992 18.1048 17.8282 20.8511 21.2406 19.9454C22.8594 19.5217 24.2593 18.4262 24.9739 17.0238C25.1343 16.7171 25.353 16.0159 25.4697 15.4608C25.8197 13.7663 25.3239 12.0426 24.0989 10.6548C23.6614 10.1582 23.4718 9.77837 23.3406 9.12102C23.1802 8.33221 23.1802 8.24456 23.4281 8.09848C23.9531 7.80633 24.828 6.94447 25.0468 6.50624C25.3968 5.84889 25.353 4.44654 24.9739 3.70155C24.4489 2.67901 23.3406 2.03627 22.0865 2.03627C21.5469 2.03627 21.4302 1.97783 21.2115 1.59803C20.9052 1.08676 19.9719 0.400197 19.272 0.166473C18.5282 -0.0964666 17.2303 -0.0380355 16.5449 0.268727ZM18.7032 1.59803C19.4615 1.81715 20.0157 2.43067 20.3219 3.40939L20.5844 4.24204L21.124 3.92067C21.7656 3.54086 22.5677 3.51165 23.0927 3.84763C23.5447 4.15439 23.851 4.95781 23.7052 5.51291C23.5593 6.09722 22.9177 6.71075 22.4364 6.71075C22.0135 6.71075 21.4448 7.14898 21.4448 7.47035C21.4448 7.5726 21.5469 8.05466 21.6636 8.53671C21.7802 9.01877 21.8677 9.457 21.8823 9.51543C21.8823 9.58847 21.4448 9.6323 20.9052 9.6323C19.8553 9.6323 19.4032 9.86602 19.4032 10.4065C19.4032 11.0346 19.8115 11.2391 20.9927 11.2391C22.5094 11.2391 22.9906 11.5021 23.5593 12.6123C23.9239 13.3427 23.9968 13.6494 23.9822 14.5113C23.9677 16.1035 23.2823 17.2575 21.8531 18.0318C21.1823 18.4116 20.9344 18.47 19.9136 18.47C18.2803 18.47 17.3178 17.9149 16.37 16.4541C16.0054 15.899 15.9762 15.7091 15.9762 14.4529C15.9762 13.2696 16.02 12.9921 16.297 12.5392L16.6324 12.0134L16.2825 10.3189C16.0929 9.38396 15.8596 8.5075 15.7429 8.37603C15.5971 8.20074 15.3929 8.15691 14.9262 8.22995C13.5554 8.41985 12.5492 7.55799 12.5492 6.19947C12.5492 5.58595 12.6221 5.43987 13.1325 4.9286C13.7013 4.3589 13.7159 4.34429 14.6638 4.40272L15.6116 4.44654L15.6991 3.93527C15.9179 2.60597 16.2533 2.1093 17.2158 1.68568C17.8282 1.42274 18.0032 1.40813 18.7032 1.59803Z" fill="#FF8F00"/>
<path d="M4.49942 17.9298C4.20776 17.9883 4.16401 18.6018 4.36818 19.6681C4.44109 20.0187 4.48484 20.2963 4.47026 20.2963C4.23693 20.2963 1.07244 21.5087 0.926606 21.6548C0.737028 21.8301 0.751611 22.0346 0.941189 23.1594C1.07244 23.8752 1.30576 25.4382 1.46617 26.6506C1.72867 28.6081 2.23907 32.4791 2.86613 37.0222C2.9828 37.8986 3.15779 39.1841 3.24529 39.8707C3.33279 40.5572 3.46403 41.1854 3.53695 41.2876C3.65361 41.4337 4.45567 41.4483 6.94935 41.3753C10.7555 41.273 10.3909 41.0393 9.92427 43.3035C9.51595 45.2901 9.53053 45.8891 10.0409 46.4442C10.2888 46.7363 10.668 46.9554 11.0909 47.0431C14.5471 47.8319 18.8636 48.1679 22.4364 47.9195C24.6968 47.7735 27.6717 47.3498 28.8966 47.0285C29.4945 46.8678 30.1654 46.2689 30.282 45.7868C30.3258 45.5969 30.2091 44.5159 30.005 43.3765L29.655 41.2876L33.009 41.346C35.8819 41.3899 36.3777 41.3753 36.4798 41.1854C36.5381 41.0685 36.8298 39.1549 37.1214 36.9491C38.1714 29.0463 39.0172 22.9987 39.1776 22.2537C39.2943 21.6694 39.163 21.5818 37.2527 20.9244C35.459 20.2963 35.5465 20.4277 35.7944 18.7479C35.8819 18.1781 35.8673 17.9883 35.7215 17.9298C35.2256 17.7399 30.7341 18.6164 26.1842 19.785C23.7489 20.4131 23.1801 20.6176 23.3551 20.7929C23.3989 20.8368 24.1135 20.7783 24.9447 20.6469C27.1759 20.3401 30.9528 19.8873 32.3528 19.7704C33.4611 19.6827 33.5486 19.6974 33.5486 19.9457C33.5486 20.1064 33.3444 21.8301 33.1111 23.8021C32.8632 25.7742 32.4986 28.8272 32.2945 30.5947C32.0903 32.3623 31.8424 34.4366 31.7549 35.1962L31.5653 36.5693L29.9758 36.8323C27.2488 37.2851 23.1072 38.3807 21.9843 38.9504C21.6927 39.0965 21.5906 39.2425 21.6198 39.4616C21.6927 39.9875 22.0718 40.1044 23.0051 39.8999C23.4718 39.7976 25.8926 39.3594 28.3717 38.9212C33.0965 38.0739 33.2569 38.0155 33.2569 37.2851C33.2569 37.1098 33.3882 35.985 33.5486 34.8018C33.709 33.6185 33.9423 31.8802 34.0736 30.9599C34.1902 30.0396 34.3507 28.8564 34.4236 28.3305C34.4965 27.8047 34.7007 26.3585 34.8611 25.1168C35.0215 23.8752 35.1965 22.6481 35.2256 22.3998L35.2986 21.947L36.1735 22.2245C37.2089 22.5605 37.1652 22.3852 36.7423 25.1314C36.5818 26.2124 36.3485 27.717 36.2319 28.4766C36.1152 29.2362 35.8819 30.7846 35.736 31.9094C35.2986 34.9917 34.7152 38.8919 34.6277 39.1549C34.5694 39.3594 34.1173 39.4032 31.3903 39.4909C28.9841 39.5785 28.1821 39.6515 28.0217 39.7976C27.8321 39.9729 27.8613 40.3381 28.1967 42.5293C28.5467 44.9103 28.5612 45.071 28.3279 45.3047C27.8758 45.7722 22.7135 46.4442 19.6073 46.4442C18.1636 46.4442 14.5762 46.0936 12.9138 45.7868C11.7617 45.5677 11.1347 45.1733 11.2805 44.7789C11.3242 44.6912 11.5284 43.5664 11.7617 42.2956C12.1409 40.1482 12.1409 39.9729 11.9221 39.7976C11.6888 39.6223 8.8743 39.4324 6.55561 39.4324C5.24315 39.4324 5.35981 39.5931 5.05357 37.3873C4.82025 35.7367 3.15779 24.6786 2.95363 23.3931C2.88072 22.9695 2.88072 22.5897 2.93905 22.5459C3.01196 22.502 3.42029 22.356 3.85777 22.1953L4.64525 21.9323L4.80566 22.8965C4.99524 24.1381 5.35981 26.8405 6.51186 35.6782C6.65769 36.803 6.84727 37.7964 6.93477 37.9132C7.02227 38.0301 7.79516 38.2346 8.75763 38.4099C12.695 39.0818 16.297 39.7392 16.7782 39.8707C17.5949 40.1044 18.0615 40.046 18.2365 39.7246C18.5282 39.1841 18.1928 38.9358 16.6032 38.4391C14.0221 37.6357 11.0034 36.9345 9.19512 36.6862L8.39306 36.5839L8.29098 35.8535C8.23265 35.4445 7.88266 32.5522 7.51809 29.4261C7.15351 26.2855 6.75977 22.9403 6.64311 21.9762C6.33687 19.4198 6.23479 19.6681 7.56183 19.7704C9.34095 19.9311 12.4471 20.2817 14.5762 20.5884C15.6554 20.7491 16.5741 20.8514 16.6032 20.8075C16.6324 20.7783 16.6178 20.6907 16.5741 20.603C16.472 20.4424 10.6972 19.0254 7.66392 18.4265C4.92233 17.886 4.80566 17.8568 4.49942 17.9298Z" fill="#FF8F00"/>
<path d="M67.1147 29.4297H57.0366V15.3906H67.1147V29.4297ZM64.5835 27.3438V17.4297H59.6147V27.3438H64.5835ZM70.9116 13.3984H73.5366V34.6094H70.9116V13.3984ZM84.5522 16.4219C84.5444 17.3672 84.7358 18.2695 85.1265 19.1289C85.5171 19.9805 86.0952 20.7344 86.8608 21.3906C87.6343 22.0469 88.5679 22.5469 89.6616 22.8906L88.3726 24.9531C87.1772 24.5547 86.1421 23.9688 85.2671 23.1953C84.3999 22.4219 83.7202 21.5078 83.228 20.4531C82.7437 21.5938 82.0562 22.582 81.1655 23.418C80.2749 24.2539 79.2163 24.8828 77.9897 25.3047L76.6772 23.2656C77.7866 22.8906 78.728 22.3516 79.5015 21.6484C80.2827 20.9375 80.8726 20.1328 81.271 19.2344C81.6694 18.3359 81.8647 17.3984 81.8569 16.4219V14.4062H84.5522V16.4219ZM79.8413 27.0391H94.3022V34.5859H91.6772V29.125H79.8413V27.0391ZM91.6772 13.3984H94.3022V26.0781H91.6772V13.3984ZM104.263 14.875C105.373 14.875 106.369 15.0938 107.251 15.5312C108.134 15.9609 108.826 16.5664 109.326 17.3477C109.833 18.1211 110.091 19 110.099 19.9844C110.091 20.9766 109.833 21.8633 109.326 22.6445C108.826 23.418 108.134 24.0234 107.251 24.4609C106.369 24.8984 105.373 25.1172 104.263 25.1172C103.162 25.1172 102.166 24.8984 101.275 24.4609C100.392 24.0234 99.7007 23.4141 99.2007 22.6328C98.7007 21.8516 98.4507 20.9688 98.4507 19.9844C98.4507 19 98.7007 18.1211 99.2007 17.3477C99.7085 16.5664 100.404 15.9609 101.287 15.5312C102.169 15.0938 103.162 14.875 104.263 14.875ZM97.4897 28.0469C100.083 28.0469 102.505 28.0039 104.755 27.918C107.005 27.8242 109.146 27.6328 111.177 27.3438L111.388 29.2422C109.294 29.6406 107.158 29.8984 104.978 30.0156C102.806 30.125 100.419 30.1797 97.8179 30.1797L97.4897 28.0469ZM101.029 19.9844C101.029 20.5625 101.166 21.0703 101.439 21.5078C101.72 21.9375 102.107 22.2695 102.599 22.5039C103.091 22.7305 103.646 22.8438 104.263 22.8438C104.888 22.8438 105.447 22.7305 105.939 22.5039C106.439 22.2695 106.83 21.9375 107.111 21.5078C107.4 21.0703 107.544 20.5625 107.544 19.9844C107.544 19.4062 107.4 18.9023 107.111 18.4727C106.83 18.043 106.439 17.7109 105.939 17.4766C105.447 17.2422 104.888 17.125 104.263 17.125C103.646 17.125 103.091 17.2422 102.599 17.4766C102.107 17.7109 101.72 18.0469 101.439 18.4844C101.166 18.9141 101.029 19.4141 101.029 19.9844ZM112.443 13.3984H115.044V34.6094H112.443V13.3984ZM131.662 18.4844C131.654 19.8125 131.857 21.0938 132.271 22.3281C132.685 23.5625 133.287 24.6602 134.076 25.6211C134.873 26.5742 135.818 27.2891 136.912 27.7656L135.341 29.8516C134.169 29.2812 133.162 28.4609 132.318 27.3906C131.474 26.3203 130.822 25.0742 130.361 23.6523C129.884 25.1602 129.212 26.4883 128.345 27.6367C127.478 28.7773 126.451 29.6484 125.263 30.25L123.623 28.1406C124.74 27.6172 125.705 26.8516 126.517 25.8438C127.33 24.8359 127.947 23.6914 128.369 22.4102C128.791 21.1289 129.005 19.8203 129.013 18.4844V15.1094H131.662V18.4844ZM134.568 20.2422H139.021V13.3984H141.599V34.6094H139.021V22.3516H134.568V20.2422ZM162.951 34.5859H160.466V23.8516H158.287V33.5547H155.826V13.7734H158.287V21.6953H160.466V13.3984H162.951V34.5859ZM144.224 28.4219C145.724 27.5703 146.833 26.3047 147.552 24.625C148.271 22.9375 148.63 21 148.63 18.8125V17.8047H144.857V15.7188H154.63V17.8047H151.162V18.8125C151.162 20.8125 151.521 22.5977 152.24 24.168C152.958 25.7305 154.068 26.8984 155.568 27.6719L154.044 29.6641C153.06 29.1328 152.228 28.4219 151.548 27.5312C150.876 26.6406 150.345 25.6016 149.955 24.4141C149.189 27.2344 147.81 29.2344 145.818 30.4141L144.224 28.4219Z" fill="#FF8F00"/>
</svg>
