<svg width="166" height="48" viewBox="0 0 166 48" fill="none" xmlns="http://www.w3.org/2000/svg">
<path fill-rule="evenodd" clip-rule="evenodd" d="M15.6398 0.837425C15.921 0.611403 16.2308 0.415518 16.5447 0.269023C17.2303 -0.0381991 18.5286 -0.0959602 19.272 0.166894C19.9727 0.40045 20.9061 1.08689 21.2116 1.59836C21.2694 1.69882 21.3204 1.77667 21.3732 1.83694C21.4334 1.90475 21.4962 1.95079 21.5766 1.98093C21.6955 2.02529 21.8503 2.03618 22.0872 2.03618C22.551 2.03618 22.9947 2.12407 23.3956 2.28647C24.0804 2.56356 24.6438 3.05746 24.9744 3.70204C25.198 4.14152 25.3051 4.80871 25.2833 5.41729C25.2683 5.84087 25.1913 6.23683 25.0473 6.50722C24.8288 6.94503 23.954 7.80726 23.4291 8.09941C23.3061 8.1714 23.2441 8.22917 23.2324 8.36478C23.2198 8.50374 23.26 8.72306 23.3412 9.12153C23.4727 9.77951 23.6618 10.1587 24.0997 10.656C24.2043 10.7748 24.3039 10.8954 24.3977 11.0184C24.5015 11.1549 24.5986 11.2939 24.689 11.4345C25.0063 11.9309 25.2423 12.4574 25.3913 12.9999C25.6107 13.7993 25.6416 14.6339 25.4709 15.4619C25.3771 15.9055 25.218 16.443 25.0757 16.7987C25.0406 16.8875 25.0063 16.9645 24.9744 17.0256C24.2604 18.4278 22.8599 19.5235 21.2409 19.9471C17.8288 20.8529 14.2995 18.1063 14.2995 14.5268C14.2995 13.7525 14.6494 12.1753 14.8822 11.8974C14.955 11.8095 14.955 11.5031 14.8822 11.1674L14.7876 10.7305C14.7424 10.5178 14.698 10.3111 14.6637 10.1738C14.6051 9.86657 14.503 9.77951 14.1974 9.77951C11.9221 9.77951 10.2445 7.03293 11.2223 4.88488C11.7028 3.8184 13.0447 2.78121 13.9639 2.76698C14.1974 2.76698 14.3573 2.60625 14.5616 2.13914C14.7633 1.68794 15.1618 1.21999 15.6398 0.837425ZM20.3226 3.40988C20.0162 2.4313 19.462 1.81769 18.7036 1.59836C18.2984 1.4887 18.0691 1.44685 17.8297 1.482C17.6547 1.50796 17.4739 1.57492 17.216 1.68626C16.2534 2.10984 15.9177 2.60625 15.6992 3.93559L15.6113 4.44707L14.6637 4.40354C13.7161 4.34494 13.701 4.35918 13.1326 4.92925C13.0422 5.0205 12.9652 5.10002 12.8999 5.17285C12.791 5.2934 12.7149 5.39553 12.6621 5.49933C12.5692 5.68433 12.5491 5.8777 12.5491 6.19999C12.5491 7.55864 13.5553 8.42087 14.9265 8.23084C15.3928 8.15801 15.5971 8.20154 15.7427 8.3765C15.8599 8.50793 16.0926 9.38439 16.2827 10.3194L16.6326 12.0146L16.2969 12.5403C16.0198 12.9932 15.9763 13.2711 15.9763 14.454C15.9763 15.7105 16.0056 15.9005 16.3697 16.4555C16.9431 17.3387 17.5224 17.8912 18.2516 18.1892C18.7279 18.3842 19.2687 18.4713 19.9141 18.4713L20.223 18.4688C20.3795 18.4663 20.5151 18.4604 20.6365 18.4504C20.8274 18.4345 20.9831 18.4077 21.1329 18.3641C21.3581 18.2988 21.5674 18.1959 21.8537 18.0335C23.2826 17.2591 23.9682 16.1048 23.9833 14.5126C23.9975 13.6503 23.9247 13.3439 23.5597 12.6131C22.9913 11.5031 22.51 11.2403 20.9931 11.2403C19.8119 11.2403 19.4034 11.0352 19.4034 10.4073C19.4034 10.1663 19.4938 9.98544 19.6864 9.85987C19.9258 9.70417 20.3243 9.63301 20.9061 9.63301C21.0341 9.63301 21.1564 9.6305 21.2685 9.62548C21.4326 9.61878 21.5749 9.60706 21.6812 9.59115C21.8076 9.5719 21.883 9.54679 21.883 9.51665L21.852 9.3735L21.8453 9.34421C21.8068 9.16088 21.7415 8.85784 21.6636 8.53722C21.5473 8.05505 21.4452 7.57287 21.4452 7.47074C21.4452 7.14929 22.0144 6.71147 22.4371 6.71147C22.5376 6.71147 22.6448 6.68469 22.7527 6.63697C22.8532 6.59344 22.9536 6.53149 23.0508 6.45699C23.353 6.22427 23.6183 5.86347 23.7062 5.51356C23.8519 4.95855 23.5455 4.15492 23.0934 3.8477C22.5686 3.51201 21.7658 3.54131 21.1245 3.92136L20.5846 4.24282L20.3226 3.40988ZM4.36715 19.6692C4.16289 18.6027 4.20642 17.9891 4.49857 17.9305C4.79073 17.861 4.91043 17.8845 7.30543 18.3574L7.66287 18.4278C10.2178 18.9317 14.7181 20.0166 16.1353 20.4427L19.02 21.1015C19.0853 21.1166 19.1397 21.1559 19.1757 21.2087C19.2042 21.2497 19.2201 21.2999 19.2201 21.3526V40.1484C19.2201 40.3142 19.0661 40.4364 18.9054 40.3996L15.3526 39.5842C13.85 39.3004 11.378 38.8593 8.75699 38.4122C7.7943 38.2373 7.02164 38.0322 6.93375 37.9158C6.89942 37.8698 6.85003 37.6898 6.79311 37.4211C6.70438 37.0017 6.59974 36.3655 6.511 35.6807C6.05142 32.1514 5.71658 29.6008 5.46879 27.7306C5.09544 24.9171 4.91881 23.6438 4.80496 22.898L4.64423 21.9336L3.8565 22.1965L3.62797 22.2802C3.28475 22.4057 2.99846 22.5104 2.93819 22.5472C2.87959 22.5907 2.87959 22.9708 2.95242 23.3944C3.06459 24.1017 3.61793 27.7658 4.13192 31.1946C4.55299 33.999 4.94727 36.6468 5.05274 37.3893L5.10799 37.797L5.11051 37.8145C5.19589 38.434 5.24779 38.8191 5.33318 39.0568C5.47381 39.4444 5.70318 39.4419 6.30507 39.4369L6.55453 39.4352C8.87334 39.4352 11.6886 39.6244 11.9213 39.8002C12.1406 39.9751 12.1406 40.1509 11.7614 42.2981L11.707 42.5962C11.4969 43.7397 11.3202 44.7007 11.2801 44.7819C11.2357 44.9016 11.2633 45.0213 11.3546 45.1368C11.4224 45.2222 11.5262 45.3051 11.6626 45.3829C11.9464 45.5453 12.3717 45.6868 12.9133 45.7898C14.5758 46.0961 18.1637 46.4469 19.6077 46.4469C22.7134 46.4469 27.8767 45.7755 28.3288 45.3076C28.5623 45.074 28.5473 44.9133 28.1973 42.5317C27.8617 40.341 27.8324 39.9751 28.0224 39.8002C28.1831 39.6537 28.9851 39.5809 31.3909 39.493C33.184 39.436 33.9935 39.3967 34.3543 39.3188C34.5427 39.2787 34.6088 39.2276 34.6289 39.1573C34.7168 38.8944 35.2994 34.9935 35.7373 31.9112C35.8134 31.321 35.9139 30.6145 36.0093 29.9666C36.0955 29.3789 36.1776 28.8398 36.2328 28.4782C36.35 27.7189 36.5836 26.2138 36.7435 25.1331L36.8163 24.6601L36.8188 24.65C37.0339 23.2621 37.1085 22.7833 36.9034 22.5464C36.777 22.3999 36.5451 22.3455 36.1751 22.2258L35.2994 21.9478L35.2266 22.4007L35.1915 22.6728L35.1295 23.1248C35.0575 23.6497 34.9571 24.3813 34.8625 25.118C34.7017 26.3603 34.4975 27.806 34.4247 28.3325C34.3518 28.8582 34.1911 30.0411 34.0747 30.9619L33.9023 32.2L33.791 33.0179L33.5499 34.8043C33.3891 35.9871 33.2577 37.1122 33.2577 37.2872C33.2577 38.018 33.0978 38.0766 28.3723 38.9237L26.5256 39.2519L25.2189 39.4879L21.2493 40.3996C21.0886 40.4364 20.9345 40.3142 20.9345 40.1484V21.3526C20.9345 21.2329 21.0174 21.1283 21.1346 21.1015L23.5739 20.544C23.6192 20.5247 23.6702 20.5038 23.7288 20.482C23.964 20.3941 24.3148 20.2878 24.8112 20.1505C25.1829 20.0476 25.6366 19.927 26.1849 19.7856C30.7346 18.6169 35.2266 17.7405 35.723 17.9305C35.8687 17.9891 35.8829 18.1791 35.7959 18.7484C35.5481 20.4285 35.4602 20.297 37.2541 20.9257C39.1644 21.5829 39.2958 21.6707 39.1795 22.2551C39.1125 22.5648 38.9275 23.7887 38.6588 25.6805C38.2813 28.3442 37.7371 32.3306 37.1227 36.9515C36.8314 39.1573 36.5392 41.0709 36.4815 41.1881C36.3793 41.3782 35.8829 41.3924 33.0099 41.3489L29.6556 41.2903L30.0055 43.3789C30.2098 44.519 30.327 45.5997 30.2826 45.7898C30.1662 46.2719 29.4957 46.8705 28.8972 47.0312C27.6725 47.3527 24.6974 47.7762 22.4363 47.9227C18.8635 48.1714 14.5465 47.8348 11.09 47.0463C10.6673 46.9584 10.2881 46.739 10.0403 46.4469C9.52964 45.8919 9.51541 45.2933 9.92393 43.306C9.96997 43.0808 10.0152 42.8808 10.0562 42.7025C10.1215 42.4137 10.1734 42.1835 10.196 42.0001C10.2077 41.903 10.2111 41.8185 10.2035 41.7456C10.1952 41.6653 10.1734 41.5991 10.1349 41.5447C9.90551 41.2216 9.08179 41.3204 6.94881 41.3782C5.68812 41.415 4.85937 41.4292 4.33366 41.4158C3.81883 41.4024 3.59365 41.3622 3.53589 41.2903C3.46306 41.1881 3.33163 40.5595 3.24374 39.873C3.18011 39.3724 3.06961 38.552 2.96916 37.8045L2.86452 37.0243C2.58074 34.9692 2.3204 33.0505 2.09689 31.3847L1.68419 28.2965L1.46486 26.6524C1.40626 26.2079 1.33762 25.7157 1.2673 25.2352C1.14676 24.4064 1.02286 23.6137 0.93999 23.1608C0.749965 22.0357 0.735734 21.8315 0.924922 21.6557C1.07142 21.51 4.23572 20.297 4.46927 20.297C4.48351 20.297 4.43998 20.02 4.36715 19.6692Z" fill="#FF8F00"/>
<path d="M67.1162 29.4316H57.0381V15.3926H67.1162V29.4316ZM64.585 27.3457V17.4316H59.6162V27.3457H64.585ZM70.9131 13.4004H73.5381V34.6113H70.9131V13.4004ZM84.5537 16.4238C84.5459 17.3691 84.7373 18.2715 85.1279 19.1309C85.5186 19.9824 86.0967 20.7363 86.8623 21.3926C87.6357 22.0488 88.5693 22.5488 89.6631 22.8926L88.374 24.9551C87.1787 24.5566 86.1436 23.9707 85.2686 23.1973C84.4014 22.4238 83.7217 21.5098 83.2295 20.4551C82.7451 21.5957 82.0576 22.584 81.167 23.4199C80.2764 24.2559 79.2178 24.8848 77.9912 25.3066L76.6787 23.2676C77.7881 22.8926 78.7295 22.3535 79.5029 21.6504C80.2842 20.9395 80.874 20.1348 81.2725 19.2363C81.6709 18.3379 81.8662 17.4004 81.8584 16.4238V14.4082H84.5537V16.4238ZM79.8428 27.041H94.3037V34.5879H91.6787V29.127H79.8428V27.041ZM91.6787 13.4004H94.3037V26.0801H91.6787V13.4004ZM104.265 14.877C105.374 14.877 106.37 15.0957 107.253 15.5332C108.136 15.9629 108.827 16.5684 109.327 17.3496C109.835 18.123 110.093 19.002 110.101 19.9863C110.093 20.9785 109.835 21.8652 109.327 22.6465C108.827 23.4199 108.136 24.0254 107.253 24.4629C106.37 24.9004 105.374 25.1191 104.265 25.1191C103.163 25.1191 102.167 24.9004 101.276 24.4629C100.394 24.0254 99.7021 23.416 99.2021 22.6348C98.7021 21.8535 98.4521 20.9707 98.4521 19.9863C98.4521 19.002 98.7021 18.123 99.2021 17.3496C99.71 16.5684 100.405 15.9629 101.288 15.5332C102.171 15.0957 103.163 14.877 104.265 14.877ZM97.4912 28.0488C100.085 28.0488 102.507 28.0059 104.757 27.9199C107.007 27.8262 109.147 27.6348 111.179 27.3457L111.39 29.2441C109.296 29.6426 107.159 29.9004 104.979 30.0176C102.808 30.127 100.421 30.1816 97.8193 30.1816L97.4912 28.0488ZM101.03 19.9863C101.03 20.5645 101.167 21.0723 101.44 21.5098C101.722 21.9395 102.108 22.2715 102.601 22.5059C103.093 22.7324 103.647 22.8457 104.265 22.8457C104.89 22.8457 105.448 22.7324 105.94 22.5059C106.44 22.2715 106.831 21.9395 107.112 21.5098C107.401 21.0723 107.546 20.5645 107.546 19.9863C107.546 19.4082 107.401 18.9043 107.112 18.4746C106.831 18.0449 106.44 17.7129 105.94 17.4785C105.448 17.2441 104.89 17.127 104.265 17.127C103.647 17.127 103.093 17.2441 102.601 17.4785C102.108 17.7129 101.722 18.0488 101.44 18.4863C101.167 18.916 101.03 19.416 101.03 19.9863ZM112.444 13.4004H115.046V34.6113H112.444V13.4004ZM131.663 18.4863C131.655 19.8145 131.858 21.0957 132.272 22.3301C132.687 23.5645 133.288 24.6621 134.077 25.623C134.874 26.5762 135.819 27.291 136.913 27.7676L135.343 29.8535C134.171 29.2832 133.163 28.4629 132.319 27.3926C131.476 26.3223 130.823 25.0762 130.362 23.6543C129.886 25.1621 129.214 26.4902 128.347 27.6387C127.479 28.7793 126.452 29.6504 125.265 30.252L123.624 28.1426C124.741 27.6191 125.706 26.8535 126.519 25.8457C127.331 24.8379 127.948 23.6934 128.37 22.4121C128.792 21.1309 129.007 19.8223 129.015 18.4863V15.1113H131.663V18.4863ZM134.569 20.2441H139.022V13.4004H141.601V34.6113H139.022V22.3535H134.569V20.2441ZM162.952 34.5879H160.468V23.8535H158.288V33.5566H155.827V13.7754H158.288V21.6973H160.468V13.4004H162.952V34.5879ZM144.226 28.4238C145.726 27.5723 146.835 26.3066 147.554 24.627C148.272 22.9395 148.632 21.002 148.632 18.8145V17.8066H144.858V15.7207H154.632V17.8066H151.163V18.8145C151.163 20.8145 151.522 22.5996 152.241 24.1699C152.96 25.7324 154.069 26.9004 155.569 27.6738L154.046 29.666C153.062 29.1348 152.229 28.4238 151.55 27.5332C150.878 26.6426 150.347 25.6035 149.956 24.416C149.19 27.2363 147.812 29.2363 145.819 30.416L144.226 28.4238Z" fill="#FF8F00"/>
</svg>
