<svg width="64" height="65" viewBox="0 0 64 65" fill="none" xmlns="http://www.w3.org/2000/svg">
<path d="M26.9999 2.7249C26.8124 2.8749 26.6874 3.1624 26.6249 3.5749C26.5624 3.9124 26.2999 4.5749 26.0124 5.0624C25.1499 6.5499 25.1749 7.9249 26.0874 9.4249C26.7499 10.4999 26.7749 11.0999 26.1999 12.0374C25.9624 12.4374 25.6874 12.9499 25.6124 13.1874C25.4624 13.5749 25.4749 13.6624 25.7124 13.9624C26.0374 14.4124 26.5249 14.5874 26.9124 14.4124C27.3999 14.1874 28.4624 12.2374 28.5749 11.3874C28.6999 10.4249 28.4749 9.4749 27.9124 8.5749C27.2499 7.4999 27.2249 6.8999 27.7999 5.9499C28.6749 4.5124 28.8624 3.3624 28.3124 2.8124C27.9499 2.4374 27.3999 2.3999 26.9999 2.7249Z" fill="#FF8F00"/>
<path d="M32.0002 2.72504C31.8127 2.87504 31.6877 3.16254 31.6252 3.57504C31.5627 3.91254 31.3002 4.57504 31.0127 5.06254C30.1502 6.55004 30.1752 7.92504 31.0877 9.42504C31.7502 10.5 31.7752 11.1 31.2002 12.05C30.3252 13.4875 30.1377 14.6375 30.6877 15.1875C31.3377 15.85 32.2127 15.4625 32.3752 14.425C32.4377 14.0875 32.7002 13.425 32.9877 12.9375C33.8502 11.45 33.8252 10.075 32.9127 8.57504C32.2502 7.50004 32.2252 6.90004 32.8002 5.95004C33.6752 4.51254 33.8627 3.36254 33.3127 2.81254C32.9502 2.43754 32.4002 2.40004 32.0002 2.72504Z" fill="#FF8F00"/>
<path d="M36.9999 2.7249C36.8124 2.8749 36.6874 3.1624 36.6249 3.5749C36.5624 3.9124 36.2999 4.5749 36.0124 5.0624C35.1499 6.5499 35.1749 7.9249 36.0874 9.4249C36.7499 10.4999 36.7749 11.0999 36.1999 12.0374C35.9624 12.4374 35.6874 12.9499 35.6124 13.1874C35.4624 13.5749 35.4749 13.6624 35.7124 13.9624C36.0374 14.4124 36.5249 14.5874 36.9124 14.4124C37.3999 14.1874 38.4624 12.2374 38.5749 11.3874C38.6999 10.4249 38.4749 9.4749 37.9124 8.5749C37.2499 7.4999 37.2249 6.8999 37.7999 5.9499C38.6749 4.5124 38.8624 3.3624 38.3124 2.8124C37.9499 2.4374 37.3999 2.3999 36.9999 2.7249Z" fill="#FF8F00"/>
<path d="M9.46253 10.65C9.36253 10.7375 8.30003 12.0125 7.13753 13.4875C4.83753 16.3625 4.71253 16.6 5.28753 17.1625C5.47503 17.35 6.02503 17.55 7.01253 17.7875L8.45003 18.1375L8.40003 18.8875C8.30003 20.3125 8.80003 21.95 9.72503 23.15C10.65 24.3625 13.7125 26.525 16.5875 27.975C18.525 28.95 21.1125 29.95 22.85 30.3875L24 30.6875V32.025C24 32.775 23.975 33.375 23.9375 33.375C23.9125 33.375 23.4375 33.175 22.9 32.9375C21.725 32.425 20.7125 31.8625 19.6375 31.1375C17.9125 29.9625 16.5 29.6 14.5875 29.85C13.95 29.925 13.125 30.0875 12.75 30.2125C12.3625 30.3375 12.0625 30.375 12.0375 30.3125C12.0125 30.2375 11.7 29.625 11.3375 28.9375C10.6375 27.5875 10.325 27.325 9.68753 27.575C9.50003 27.6375 8.48753 28.7875 7.18753 30.425C4.83753 33.3625 4.71253 33.6 5.28753 34.1625C5.47503 34.35 6.02503 34.55 7.00003 34.7875L8.45003 35.1375L8.40003 35.975C8.28753 38.075 9.20003 39.975 11.0625 41.4625C14.25 44.0125 19.0625 46.4375 22.825 47.3875L23.975 47.675L24.0375 49.375C24.1 51.2625 24.375 52.2875 25.15 53.6C25.625 54.4 27.0375 55.875 27.6125 56.175L28 56.3875V59.1375V61.8875L28.3125 62.1875L28.6125 62.5H32H35.3875L35.6875 62.1875C36 61.8875 36 61.8875 36.0125 59.1625V56.4375L36.7875 55.8625C38.2625 54.775 39.3875 53.0125 39.8 51.1625C39.9125 50.6625 40 49.6875 40 48.975V47.6875L41.4875 47.2875C44.175 46.575 47.575 45.0875 49.9375 43.5875C51.7375 42.45 53.6875 40.9125 54.225 40.225C55.1875 38.975 55.7125 37.3375 55.6 35.8875L55.55 35.1375L56.9875 34.7875C57.975 34.55 58.525 34.35 58.725 34.1625C59.2875 33.6 59.1625 33.3625 56.8125 30.425C55.5125 28.7875 54.5 27.6375 54.3125 27.575C53.675 27.325 53.3625 27.5875 52.6625 28.9375C52.3 29.625 51.9875 30.2375 51.9625 30.3125C51.9375 30.375 51.6375 30.3375 51.25 30.2125C50.875 30.0875 50.05 29.925 49.4125 29.85C47.5 29.6 46.0875 29.9625 44.3625 31.1375C43.2875 31.8625 42.275 32.425 41.1 32.9375C40.5625 33.175 40.0875 33.375 40.0625 33.375C40.025 33.375 40 32.775 40 32.025V30.6875L41.4875 30.2875C44.1625 29.575 47.575 28.075 49.9375 26.5875C51.7375 25.45 53.6875 23.9125 54.225 23.225C55.1875 21.975 55.7125 20.3375 55.6 18.8875L55.55 18.1375L56.9875 17.7875C57.975 17.55 58.525 17.35 58.725 17.1625C59.2875 16.6 59.1625 16.3625 56.8125 13.425C55.5125 11.7875 54.5 10.6375 54.3125 10.575C53.675 10.325 53.3625 10.5875 52.6625 11.9375C52.3 12.625 51.9875 13.2375 51.9625 13.3125C51.9375 13.375 51.6375 13.3375 51.25 13.2125C50.875 13.0875 50.05 12.925 49.4125 12.85C47.4375 12.6 46.1125 12.95 44.1875 14.25C42.175 15.6125 39.85 16.575 37.25 17.15C36.0375 17.4125 35.6375 17.4375 32 17.4375C28.3625 17.4375 27.9625 17.4125 26.75 17.15C24.15 16.575 21.825 15.6125 19.8125 14.25C18.0375 13.05 16.7625 12.6625 15.0625 12.8C14.5125 12.8375 13.725 12.9625 13.3125 13.075C12.9 13.175 12.45 13.2875 12.3125 13.325C12.1 13.3875 11.9625 13.2 11.4375 12.125C11.0875 11.425 10.7 10.775 10.5625 10.675C10.2625 10.4625 9.73753 10.45 9.46253 10.65ZM9.98753 15.1C9.75003 15.3625 9.45003 15.725 9.31253 15.9125C9.07503 16.225 9.03753 16.2375 8.47503 16.1C8.13753 16.025 7.87503 15.9125 7.87503 15.85C7.87503 15.7875 8.31253 15.2 8.83753 14.5375L9.80003 13.35L10.1125 13.975L10.425 14.6125L9.98753 15.1ZM55.175 14.5625C55.7 15.2125 56.125 15.7875 56.125 15.85C56.125 15.9125 55.8625 16.025 55.5375 16.1C54.9625 16.2375 54.925 16.225 54.6875 15.9125C54.55 15.725 54.25 15.3625 54.0125 15.1L53.5875 14.6125L53.875 14C54.0375 13.65 54.175 13.375 54.2 13.375C54.2125 13.375 54.65 13.9125 55.175 14.5625ZM17.25 15.0875C17.5625 15.225 18.3125 15.6625 18.9125 16.05L20.0125 16.775L21.125 19C21.75 20.25 22.35 21.3 22.4875 21.375C23.125 21.7125 24 21.2375 24 20.5625C24 20.3875 23.775 19.8 23.5 19.25C23.225 18.7 23 18.225 23 18.2C23 18.1625 23.3875 18.275 23.8625 18.4375C24.3375 18.6 25.05 18.8 25.4375 18.8875L26.15 19.05L27.25 20.6875C27.8625 21.6 28.45 22.375 28.5625 22.425C29.225 22.675 30 22.2 30 21.5375C30 21.325 29.775 20.8375 29.4375 20.3375L28.875 19.5H30.7125H32.55L34.0625 21C35.375 22.2875 35.6375 22.5 35.9875 22.5C36.5125 22.5 37 22.025 37 21.4875C37 21.175 36.8375 20.925 36.1875 20.25L35.375 19.4125L36.1 19.3375C36.5 19.2875 37.2875 19.1625 37.8625 19.05L38.8875 18.8375L40.2375 20.175C41.3875 21.3 41.65 21.5 41.9875 21.5C42.5125 21.5 43 21.025 43 20.4875C43 20.1625 42.825 19.925 42.05 19.125L41.1125 18.15L42.5375 17.475C43.325 17.0875 44.55 16.4125 45.2625 15.95C47.1 14.775 47.825 14.5875 49.625 14.8875C51.3125 15.15 52.475 15.975 53.15 17.35C53.5125 18.0875 53.5625 18.3 53.5625 19.25C53.5625 20.2 53.525 20.4125 53.15 21.15C52.6875 22.0875 52.1875 22.5875 50.375 23.875C46.4875 26.6375 41.95 28.45 37 29.2125C34.9375 29.525 29.05 29.525 27 29.2125C22.2375 28.475 18.1875 26.9125 14.2375 24.3C12.2375 22.9625 11.375 22.175 10.875 21.2C10.475 20.4125 10.4375 20.25 10.4375 19.2625C10.4375 18.3625 10.4875 18.075 10.7625 17.4875C11.6375 15.6375 13.3875 14.7 15.8125 14.8C16.35 14.825 16.9 14.925 17.25 15.0875ZM9.98753 32.1C9.75003 32.3625 9.45003 32.725 9.31253 32.9125C9.07503 33.225 9.03753 33.2375 8.47503 33.1C8.13753 33.025 7.87503 32.9125 7.87503 32.85C7.87503 32.7875 8.31253 32.2 8.83753 31.5375L9.80003 30.35L10.1125 30.975L10.425 31.6125L9.98753 32.1ZM55.175 31.5625C55.7 32.2125 56.125 32.7875 56.125 32.85C56.125 32.9125 55.8625 33.025 55.5375 33.1C54.9625 33.2375 54.925 33.225 54.6875 32.9125C54.55 32.725 54.25 32.3625 54.0125 32.1L53.5875 31.6125L53.875 31C54.0375 30.65 54.175 30.375 54.2 30.375C54.2125 30.375 54.65 30.9125 55.175 31.5625ZM27.7875 31.325C27.975 31.3875 28 31.575 28 32.8875C28 34.375 28 34.375 27.725 34.325C27.5625 34.2875 27.1125 34.2 26.725 34.125L26 33.9875V32.5375V31.1L26.7875 31.1875C27.2125 31.225 27.6625 31.3 27.7875 31.325ZM38 32.55V33.9875L37.2875 34.125C36.8875 34.2 36.4375 34.2875 36.2875 34.325C36 34.375 36 34.375 36 32.875C36 31.425 36.0125 31.375 36.2875 31.3125C36.625 31.2375 37.2 31.1625 37.6625 31.1375L38 31.125V32.55ZM34 33V34.5H32H30V33V31.5H32H34V33ZM16.825 31.9375C17.1625 32.0375 18.025 32.4875 18.7375 32.95C19.45 33.4125 20.675 34.0875 21.4625 34.475L22.8875 35.15L21.95 36.125C21.175 36.925 21 37.1625 21 37.4875C21 38.025 21.4875 38.5 22.0125 38.5C22.35 38.5 22.6125 38.3 23.7625 37.175L25.1125 35.8375L26.1375 36.05C26.7125 36.1625 27.5 36.2875 27.9 36.3375L28.625 36.4125L27.8125 37.25C27.1625 37.925 27 38.175 27 38.4875C27 39.025 27.4875 39.5 28.0125 39.5C28.3625 39.5 28.625 39.2875 29.9375 38L31.45 36.5H33.2875H35.125L34.5625 37.3375C34.225 37.8375 34 38.325 34 38.5375C34 39.2 34.775 39.675 35.4375 39.425C35.55 39.375 36.1375 38.6 36.75 37.6875L37.85 36.05L38.5625 35.8875C38.95 35.8 39.6625 35.6 40.1375 35.4375C40.6125 35.275 41 35.1625 41 35.2C41 35.225 40.775 35.7 40.5 36.25C40.225 36.8 40 37.3875 40 37.5625C40 38.2375 40.875 38.7125 41.5125 38.375C41.65 38.3 42.25 37.25 42.875 36L43.9875 33.775L45.0875 33.05C47 31.8 47.7625 31.6 49.5 31.8625C51.3 32.15 52.45 32.925 53.15 34.35C53.5125 35.0875 53.5625 35.3 53.5625 36.25C53.5625 37.1375 53.5125 37.425 53.2375 38C52.7875 38.9625 52.3625 39.4125 50.95 40.4625C46.9125 43.475 42.225 45.4 37 46.2125C34.95 46.525 29.05 46.525 27 46.2125C22.2375 45.475 18.1875 43.9125 14.2375 41.3C12.2375 39.9625 11.375 39.175 10.875 38.2C10.475 37.4125 10.4375 37.25 10.4375 36.2625C10.4375 35.3625 10.4875 35.075 10.7625 34.4875C11.225 33.5125 11.8875 32.825 12.8 32.375C14.0125 31.7875 15.6875 31.6 16.825 31.9375ZM27.7625 48.325C27.925 48.375 27.975 48.6125 28.025 49.475C28.125 51.2125 28.75 52.25 30.15 53.0125C30.875 53.4 31.025 53.4375 32 53.4375C32.975 53.4375 33.125 53.4 33.85 53.0125C35.2375 52.2625 35.875 51.2 35.975 49.475C36.0375 48.25 35.975 48.3125 37.225 48.1875L38 48.1V49.15C38 50.975 37.475 52.3875 36.325 53.6C35.975 53.975 35.3875 54.45 35.025 54.65C33.9875 55.2375 34 55.2125 34 58.025V60.5H32H30V58.025C30 55.2125 30.0125 55.2375 28.975 54.65C28.6125 54.45 28.025 53.975 27.675 53.6C26.525 52.3875 26 50.975 26 49.15V48.1L26.7875 48.1875C27.2125 48.225 27.65 48.2875 27.7625 48.325ZM33.975 49.375C33.9 50.75 33.25 51.4375 32 51.4375C30.75 51.4375 30.1 50.75 30.025 49.375L29.975 48.5H32H34.025L33.975 49.375Z" fill="#FF8F00"/>
<path d="M45 22.8125C43.375 23.6375 43 23.95 43 24.4625C43 24.8875 43.525 25.375 44 25.375C44.3875 25.375 47.225 24.0375 47.6625 23.65C47.9625 23.3875 47.95 22.575 47.625 22.25C47.225 21.85 46.6875 21.9625 45 22.8125Z" fill="#FF8F00"/>
<path d="M39.9376 24.8125C39.6626 24.9125 39.4251 25 39.4001 25C39.3751 25 39.2876 25.175 39.2001 25.4C38.8876 26.1375 39.3001 26.75 40.1251 26.75C41.4376 26.75 42.1626 25.6375 41.3501 24.875C41.0376 24.5875 40.6376 24.5625 39.9376 24.8125Z" fill="#FF8F00"/>
<path d="M45.0625 40.0751C43.375 40.9126 43 41.2001 43 41.7001C43 42.1376 43.5125 42.6626 43.9625 42.6626C44.3875 42.6626 47.175 41.3626 47.6 40.9751C48 40.5876 47.9875 39.8501 47.55 39.5126C47.3625 39.3626 47.1 39.2501 46.95 39.2626C46.8125 39.2626 45.9625 39.6251 45.0625 40.0751Z" fill="#FF8F00"/>
<path d="M40.1001 42.0375C39.2876 42.3 39.0626 42.6 39.1126 43.3125C39.1376 43.625 39.6876 44.125 39.9876 44.125C40.5251 44.125 41.3876 43.7125 41.5626 43.3625C41.8251 42.8625 41.8001 42.65 41.3876 42.2375C40.9876 41.85 40.8126 41.8125 40.1001 42.0375Z" fill="#FF8F00"/>
</svg>
